<?xml version="1.0" encoding="utf-8"?>
<!-- Generator: Adobe Illustrator 23.0.2, SVG Export Plug-In . SVG Version: 6.00 Build 0)  -->
<svg version="1.1" id="Capa_1" xmlns="http://www.w3.org/2000/svg" xmlns:xlink="http://www.w3.org/1999/xlink" x="0px" y="0px"
	 viewBox="0 0 256 256" style="enable-background:new 0 0 256 256;" xml:space="preserve">
<style type="text/css">
	.st0{fill:#D2D8F5;}
</style>
<g>
	<g>
		<path class="st0" d="M230.5,152.2V47c0-11.3-9.2-20.5-20.5-20.5h-25.6c-2.8,0-5.1,2.3-5.1,5.1v25.6c0,5.7-4.6,10.2-10.2,10.2
			s-10.2-4.6-10.2-10.2c0-4.3,2.8-8.1,6.8-9.6c2-0.7,3.4-2.7,3.4-4.8V11.1c0-2.8-2.3-5.1-5.1-5.1s-5.1,2.3-5.1,5.1v15.4h-77
			c-2.8,0-5.1,2.3-5.1,5.1v25.6c0,5.7-4.6,10.2-10.2,10.2s-10.2-4.6-10.2-10.2c0-4.3,2.8-8.1,6.8-9.6c2-0.7,3.4-2.7,3.4-4.8V11.1
			c0-2.8-2.3-5.1-5.1-5.1c-2.8,0-5.1,2.3-5.1,5.1v15.4H25.5C14.2,26.5,5,35.7,5,47v164c0,11.3,9.2,20.5,20.5,20.5h125.7
			c10.3,12.5,26,20.5,43.5,20.5c31.1,0,56.4-25.3,56.4-56.4C251,178.2,243,162.5,230.5,152.2z M138.2,195.6c0,5.3,0.8,10.5,2.2,15.4
			H25.5V88H210v53.4c-4.9-1.4-10-2.2-15.4-2.2C163.5,139.2,138.2,164.5,138.2,195.6z M223.9,183.9L188,219.7c-1,1-2.3,1.5-3.6,1.5
			s-2.6-0.5-3.6-1.5l-15.4-15.4c-2-2-2-5.2,0-7.2s5.2-2,7.2,0l11.8,11.8l32.3-32.3c2-2,5.2-2,7.2,0S225.9,181.9,223.9,183.9z"/>
	</g>
</g>
</svg>
