<?xml version="1.0" encoding="utf-8"?>
<!-- Generator: Adobe Illustrator 23.0.2, SVG Export Plug-In . SVG Version: 6.00 Build 0)  -->
<svg version="1.1" id="Capa_1" xmlns="http://www.w3.org/2000/svg" xmlns:xlink="http://www.w3.org/1999/xlink" x="0px" y="0px"
	 viewBox="0 0 256 256" style="enable-background:new 0 0 256 256;" xml:space="preserve">
<style type="text/css">
	.st0{fill:#D2D8F5;}
</style>
<g>
	<path class="st0" d="M220.9,135v-30.8h7.3c4,0,7.3-3.3,7.3-7.3V68.4c0-12-9.8-21.8-21.8-21.8h-26.4c12-20.4-3.4-45.7-26.7-44.6
		C150.1,2.5,141,8.3,136,17.4l-10.7,19.8l-10.7-19.8C109.6,8.3,100.4,2.5,90,2C66.7,0.9,51.4,26.2,63.3,46.6h-25
		c-12,0-21.8,9.8-21.8,21.8V97c0,4,3.3,7.3,7.3,7.3h7.3v44.1H9.3c-4,0-7.3,3.3-7.3,7.3v87.2c0,4,3.3,7.3,7.3,7.3h29.1
		c3.6,0,6.5-2.6,7.1-6c14.2,3.9,29.7,6,44.7,6h64.9c15.9,0,31-7.6,40.6-20.2c0.1-0.2,49.8-61,50-61.1c2.8-3.8,4.4-8.3,4.4-13.1
		C250,140.7,235.2,130,220.9,135z M31.1,184.6v50.8H16.6v-72.6h14.5V184.6z M213.7,61.1c4,0,7.3,3.3,7.3,7.3v21.3h-73.1V61.1
		C150.1,61.1,211.5,61.1,213.7,61.1z M206.4,104.2v42.6L176,178.4c-2.7-9-11-15.6-20.9-15.6h-7.3v-58.6L206.4,104.2L206.4,104.2z
		 M148.8,24.3c2.5-4.6,7.2-7.5,12.4-7.8c11.5-0.5,19.4,11.6,13.8,22.1c-2.7,5-7.6,7.9-13.2,7.9c-3,0-22.3,0-25.2,0L148.8,24.3z
		 M118.8,61.1c5.4,0,9.3,0,14.5,0v101.7h-11.8c-0.9,0-1.9-0.1-2.8-0.2L118.8,61.1L118.8,61.1z M88.7,16.5c0.2,0,0.5,0,0.7,0
		c5.3,0.2,9.9,3.2,12.4,7.8l12,22.3c-11.3,0-18.1,0-25.2,0c-5.6,0-10.5-3-13.2-7.9C70.1,28.4,77.6,16.5,88.7,16.5z M31.1,89.7V68.4
		c0-4,3.3-7.3,7.3-7.3c0.5,0,65,0,65.9,0v28.6L31.1,89.7L31.1,89.7z M104.2,104.2v50.2c-8.5-5.9-18.7-9.1-29.3-9.1
		s-20.8,3.2-29.3,9.1v-50.2H104.2z M234.1,159.8l-49.8,60.9c-0.1,0.1-0.1,0.2-0.2,0.2c-6.8,9.1-17.7,14.5-29.1,14.5H90.2
		c-16.4,0-30-2.4-44.6-6.5v-44.4v-11.2l5.1-4.5c13.8-12.2,34.7-12.2,48.5,0c6.2,5.5,14.2,8.4,22.4,8.4h33.6c4,0,7.3,3.3,7.3,7.3
		s-3.3,7.3-7.3,7.3h-51.6c-4,0-7.3,3.3-7.3,7.3s3.3,7.3,7.3,7.3H160c6,0,11.8-2.5,15.9-6.9c1.8-1.9,45.4-47.2,47-48.8l0,0l0,0
		c4.5-4.8,12.6-1.7,12.6,4.9C235.5,157.1,235,158.6,234.1,159.8z"/>
</g>
</svg>
