<?xml version="1.0" encoding="utf-8"?>
<!-- Generator: Adobe Illustrator 24.0.1, SVG Export Plug-In . SVG Version: 6.00 Build 0)  -->
<svg version="1.1" id="Layer_1" xmlns="http://www.w3.org/2000/svg" xmlns:xlink="http://www.w3.org/1999/xlink" x="0px" y="0px"
	 viewBox="0 0 205.4 159.9" style="enable-background:new 0 0 205.4 159.9;" xml:space="preserve">
<style type="text/css">
	.st0{fill:#407CBF;}
	.st1{fill:#0E0E0E;stroke:#000000;stroke-width:2;stroke-miterlimit:10;}
	.st2{fill:#0E0E0E;}
</style>
<g>
	<path class="st0" d="M9.7,93.3v-1.9c1.9-0.4,3.7-0.9,5.4-1.4c3.3-1,4.7-2.4,4.7-4.7c0-1.1-0.3-1.7-1-2.3c-1-0.8-2.3-1.3-3.6-1.9
		c-1.7-0.7-3-1.3-3.9-2.4c-0.8-0.9-1.4-2-1.4-3.9c0-4.9,3.5-8,8.9-9.8c1.7-0.5,3.7-1,5.4-1.2v1.9c-1.5,0.3-3,0.7-4.3,1.1
		c-2.9,0.9-4.4,2.2-4.4,4.4c0,1.1,0.3,1.8,1,2.3c1,0.8,2.3,1.4,3.6,2c1.7,0.8,3,1.3,3.9,2.3c0.9,0.9,1.5,2,1.5,3.9
		c0,4.8-3.9,8.3-9.1,9.9C14.2,92.5,11.8,93,9.7,93.3z"/>
	<path class="st0" d="M28.5,62.2l9.4-2.9c4.7-1.5,8.1-0.4,8.1,5.5c0,5.9-2.9,9.5-8,11.1L34.6,77v8.9l-6.1,1.9V62.2z M36.7,74.2
		c2.3-0.7,3.1-2.2,3.1-7.3c0-5-0.9-5.9-3.2-5.2l-2.1,0.7v12.5L36.7,74.2z"/>
	<path class="st0" d="M49.1,55.8l6-1.9v25.6l-6,1.9V55.8z"/>
	<path class="st0" d="M61.5,61.1v16.3l-2.4,0.8V52.6l3.7-1.2l10.6,12.5V48.1l2.4-0.8v25.6L72.4,74L61.5,61.1z"/>
</g>
<g>
	<path class="st0" d="M56.4,98.3l-6.6-14.4l6.6-2.1l4.9,11.3l5-14.5l2.5-0.8l-6.4,18.3v9.3l-6,1.9V98.3z"/>
	<path class="st0" d="M69.5,90.5c0-9,3.4-14.1,9.9-16.2c6.5-2.1,9.9,0.9,9.9,9.9c0,9-3.4,14.1-9.9,16.2
		C72.8,102.5,69.5,99.5,69.5,90.5z M83.1,86.2c0-9.5-0.8-10.8-3.7-9.9c-2.9,0.9-3.7,2.8-3.7,12.2c0,9.4,0.8,10.8,3.7,9.9
		C82.2,97.5,83.1,95.6,83.1,86.2z"/>
	<path class="st0" d="M92.5,87.8V70.4l6.2-1.9v17.6c0,4,1,5.2,4.3,4.2c3.4-1.1,4.4-2.9,4.4-6.9V65.8l2.5-0.8v17.4
		c0,6.3-2.8,9.3-8.5,11.1C95.6,95.3,92.5,94.1,92.5,87.8z"/>
	<path class="st0" d="M121.3,76.9l-1.8,0.6v10l-5.9,1.8V63.8l8.7-2.7c4.9-1.5,8.8-1.1,8.8,5c0,3.4-1.5,6.2-4,8.1l4.3,9.6l-6.3,2
		L121.3,76.9z M122,74.5c2.2-0.7,3.2-2.2,3.2-6.6c0-4.6-1-5.3-3.2-4.6l-2.5,0.8v11.3L122,74.5z"/>
</g>
<g>
	<path class="st0" d="M94.8,108.2L91,125.7l-4.8,1.5L81,103.2l6.1-1.9l3.4,16.2l4.1-18.6l3.7-1.2l4.2,16.2l3.5-18.6l2.3-0.7
		l-5.1,27.1l-4.5,1.4L94.8,108.2z"/>
	<path class="st0" d="M123.1,103.5l-6.2,2v12.1l-6.1,1.9V93.9l6.1-1.9v11.4l6.2-2V90l6-1.9v25.6l-6,1.9V103.5z"/>
	<path class="st0" d="M133.1,86.9l14.8-4.6v2l-8.7,2.7v9.4l7.6-2.4v2l-7.6,2.4v10l8.8-2.8v2.1l-14.8,4.7V86.9z"/>
	<path class="st0" d="M151,81.3l14.8-4.6v2l-8.7,2.7v9.4l7.6-2.4v2l-7.6,2.4v10l8.8-2.8v2.1l-14.8,4.7V81.3z"/>
	<path class="st0" d="M168.9,75.6l6.1-1.9v23.5l7.9-2.5v2.1l-14,4.4V75.6z"/>
	<path class="st0" d="M184.5,95.9V94c1.9-0.5,3.7-0.9,5.4-1.4c3.3-1,4.7-2.4,4.7-4.7c0-1.1-0.3-1.7-1-2.3c-1-0.8-2.3-1.3-3.6-1.9
		c-1.7-0.7-3-1.3-3.9-2.4c-0.8-0.9-1.4-2-1.4-3.9c0-4.9,3.5-8,8.9-9.8c1.7-0.5,3.7-1,5.4-1.2v1.9c-1.5,0.3-3,0.7-4.3,1.1
		c-2.9,0.9-4.4,2.2-4.4,4.4c0,1.1,0.3,1.8,1,2.3c1,0.8,2.3,1.4,3.6,2c1.7,0.8,3,1.4,3.9,2.3c0.9,0.9,1.5,2,1.5,3.9
		c0,4.8-3.9,8.3-9.1,9.9C189,95.1,186.6,95.6,184.5,95.9z"/>
</g>
<g>
	<g>
		<g>
			<path class="st1" d="M154.3,51.4"/>
		</g>
	</g>
	<g>
		<g>
			<path class="st2" d="M138.5,79.4c-0.2,0-0.4-0.1-0.6-0.2c-0.3-0.2-0.4-0.5-0.4-0.8V50.3L84.1,67.4c-0.3,0.1-0.6,0-0.9-0.1
				c-0.3-0.2-0.4-0.5-0.4-0.8l-0.2-27L4.3,63.8C3.7,64,3.2,63.7,3,63.1c-0.2-0.5,0.1-1.1,0.7-1.3l79.7-24.7c0.3-0.1,0.6,0,0.9,0.1
				s0.4,0.5,0.4,0.8l0.2,27l53.4-17.2c0.3-0.1,0.6,0,0.9,0.1c0.3,0.2,0.4,0.5,0.4,0.8v28.2l61.4-19.5c0.5-0.2,1.1,0.1,1.3,0.7
				c0.2,0.5-0.1,1.1-0.7,1.3l-62.7,19.9C138.7,79.4,138.6,79.4,138.5,79.4z"/>
		</g>
	</g>
	<g>
		<g>
			<path class="st2" d="M25.8,56l-10.9,3c-1.3,0-2.4,1.9-2.4,0.6V53c0-1.3,1.1-2.4,2.4-2.4h10.9c1.3,0,2.4,1.1,2.4,2.4v0.6
				C28.2,54.9,27.1,56,25.8,56z"/>
		</g>
		<g>
			<path class="st2" d="M12.7,60.6c-0.1,0-0.2,0-0.3-0.1C12,60.3,12,59.8,12,59.6V53c0-1.6,1.3-2.9,2.9-2.9h10.9
				c1.6,0,2.9,1.3,2.9,2.9v0.6c0,1.6-1.3,2.9-2.8,2.9l-11,3c-0.4,0-0.9,0.3-1.3,0.6C13.3,60.4,13,60.6,12.7,60.6z M14.9,51.1
				c-1,0-1.9,0.9-1.9,1.9v6.3c0,0,0,0,0,0c0.5-0.3,1.1-0.8,1.8-0.8l11-3c1,0,1.9-0.9,1.9-1.9V53c0-1-0.9-1.9-1.9-1.9H14.9z"/>
		</g>
	</g>
	<g>
		<g>
			<path class="st2" d="M45.5,50.2l-18.2,5c-0.5,0-0.9-0.4-0.9-0.9V42.8c0-0.5,0.4-0.9,0.9-0.9h18.2c0.5,0,0.9,0.4,0.9,0.9v6.6
				C46.4,49.9,46,50.2,45.5,50.2z"/>
		</g>
		<g>
			<path class="st2" d="M27.4,55.7L27.4,55.7c-0.8,0-1.4-0.6-1.4-1.4V42.8c0-0.7,0.6-1.4,1.4-1.4h18.2c0.7,0,1.4,0.6,1.4,1.4v6.6
				c0,0.7-0.6,1.3-1.3,1.4L27.4,55.7z M27.3,42.5c-0.2,0-0.4,0.2-0.4,0.4v11.6c0,0.2,0.1,0.3,0.3,0.3l18.3-5c0.2,0,0.4-0.2,0.4-0.4
				v-6.6c0-0.2-0.2-0.4-0.4-0.4H27.3z"/>
		</g>
	</g>
	<g>
		<g>
			<path class="st2" d="M43.2,42.8h-12c-0.5,0-1-0.4-1-1v-2.7c0-0.5,0.4-1,1-1h12c0.5,0,1,0.4,1,1v2.7
				C44.1,42.3,43.7,42.8,43.2,42.8z"/>
		</g>
		<g>
			<path class="st2" d="M43.2,43.3h-12c-0.8,0-1.5-0.7-1.5-1.5v-2.7c0-0.8,0.7-1.5,1.5-1.5h12c0.8,0,1.5,0.7,1.5,1.5v2.7
				C44.6,42.6,44,43.3,43.2,43.3z M31.2,38.6c-0.3,0-0.5,0.2-0.5,0.5v2.7c0,0.3,0.2,0.5,0.5,0.5h12c0.3,0,0.5-0.2,0.5-0.5v-2.7
				c0-0.3-0.2-0.5-0.5-0.5H31.2z"/>
		</g>
	</g>
	<g>
		<g>
			<polygon class="st2" points="55.2,46.6 45,48.6 45,44.4 55.2,44.4 			"/>
		</g>
		<g>
			<path class="st2" d="M44.5,49.2v-5.3h11.2V47L44.5,49.2z M45.5,44.9V48l9.2-1.8v-1.3H45.5z M55.2,46.6L55.2,46.6L55.2,46.6z"/>
		</g>
	</g>
	<g>
		<g>
			<path class="st2" d="M74.1,41.5l-17.3,5c-0.5,0-1-0.4-1-1V33.2c0-0.5,0.4-1,1-1h17.3c0.5,0,1,0.4,1,1v7.3
				C75.1,41.1,74.7,41.5,74.1,41.5z"/>
		</g>
		<g>
			<path class="st2" d="M56.9,47L56.9,47c-0.9,0-1.6-0.7-1.6-1.5V33.2c0-0.8,0.7-1.5,1.5-1.5h17.3c0.8,0,1.5,0.7,1.5,1.5v7.3
				c0,0.8-0.6,1.4-1.4,1.5L56.9,47z M56.9,32.8c-0.3,0-0.5,0.2-0.5,0.5v12.3c0,0.2,0.2,0.5,0.4,0.5l17.3-5c0.3,0,0.5-0.2,0.5-0.5
				v-7.3c0-0.3-0.2-0.5-0.5-0.5H56.9z"/>
		</g>
	</g>
	<g>
		<g>
			<path class="st2" d="M73.2,32h-11c-0.1,0-0.1-0.1-0.1-0.1v-5.5c0-0.1,0.1-0.1,0.1-0.1h11c0.1,0,0.1,0.1,0.1,0.1v5.5
				C73.3,32,73.3,32,73.2,32z"/>
		</g>
		<g>
			<path class="st2" d="M73.2,32.5h-11c-0.4,0-0.6-0.3-0.6-0.6v-5.5c0-0.4,0.3-0.6,0.6-0.6h11c0.4,0,0.6,0.3,0.6,0.6v5.5
				C73.8,32.2,73.6,32.5,73.2,32.5z M62.6,31.5h10.3v-4.8H62.6V31.5z"/>
		</g>
	</g>
	<g>
		<g>
			<path class="st2" d="M70.7,27.5c-0.6,0-1-0.4-1-1v-5.1c0-0.6,0.4-1,1-1s1,0.4,1,1v5.1C71.7,27.1,71.2,27.5,70.7,27.5z"/>
		</g>
	</g>
	<g>
		<g>
			<rect x="51" y="38.9" class="st2" width="6.6" height="5.8"/>
		</g>
		<g>
			<path class="st2" d="M58.1,45.1h-7.6v-6.8h7.6V45.1z M51.5,44.1h5.6v-4.8h-5.6V44.1z"/>
		</g>
	</g>
	<g>
		<g>
			<path class="st2" d="M94.8,61.5L85.5,65c-0.6,0.2-1.3-0.2-1.3-0.9V26.6c0-0.5,0.4-1,1-1h9.3c0.5,0,1,0.4,1,1v34
				C95.4,61,95.2,61.3,94.8,61.5z"/>
		</g>
		<g>
			<path class="st2" d="M85.1,65.5c-0.3,0-0.6-0.1-0.8-0.3c-0.4-0.3-0.6-0.7-0.6-1.2V26.6c0-0.8,0.7-1.5,1.5-1.5h9.3
				c0.8,0,1.5,0.7,1.5,1.5v34c0,0.6-0.4,1.2-0.9,1.4l-9.3,3.5C85.5,65.5,85.3,65.5,85.1,65.5z M85.1,26.1c-0.3,0-0.5,0.2-0.5,0.5
				v37.5c0,0.2,0.1,0.3,0.2,0.4c0.1,0.1,0.3,0.1,0.4,0.1l9.3-3.5c0.2-0.1,0.3-0.2,0.3-0.4v-34c0-0.3-0.2-0.5-0.5-0.5H85.1z"/>
		</g>
	</g>
	<g>
		<g>
			<rect x="75.3" y="34.2" class="st2" width="6.4" height="4.9"/>
		</g>
		<g>
			<path class="st2" d="M82.3,39.6h-7.4v-5.9h7.4V39.6z M75.8,38.6h5.4v-3.9h-5.4V38.6z"/>
		</g>
	</g>
	<g>
		<g>
			<path class="st2" d="M86.6,38.7h-5.9c-0.4,0-0.7-0.3-0.7-0.7v-7.5c0-0.4,0.3-0.7,0.7-0.7h5.9c0.4,0,0.7,0.3,0.7,0.7V38
				C87.3,38.4,87,38.7,86.6,38.7z"/>
		</g>
		<g>
			<path class="st2" d="M86.6,39.2h-5.9c-0.7,0-1.2-0.5-1.2-1.2v-7.5c0-0.7,0.5-1.2,1.2-1.2h5.9c0.7,0,1.2,0.5,1.2,1.2V38
				C87.8,38.6,87.2,39.2,86.6,39.2z M80.7,30.3c-0.1,0-0.2,0.1-0.2,0.2V38c0,0.1,0.1,0.2,0.2,0.2h5.9c0.1,0,0.2-0.1,0.2-0.2v-7.5
				c0-0.1-0.1-0.2-0.2-0.2H80.7z"/>
		</g>
	</g>
	<g>
		<g>
			<polygon class="st2" points="105.2,58.6 95.9,62.8 95.9,49.2 105.2,49.2 			"/>
		</g>
		<g>
			<path class="st2" d="M95.4,63.6V48.7h10.3v10.2L95.4,63.6z M96.4,49.7V62l8.3-3.7v-8.6H96.4z M105.2,58.6L105.2,58.6L105.2,58.6z
				"/>
		</g>
	</g>
	<g>
		<g>
			<path class="st2" d="M119.3,54.3l-14.4,4c-0.5,0.1-1-0.2-1-0.7v-25c0-0.4,0.3-0.8,0.8-0.8h14.4c0.4,0,0.8,0.3,0.8,0.8v21
				C119.9,53.9,119.7,54.2,119.3,54.3z"/>
		</g>
		<g>
			<path class="st2" d="M104.7,58.8c-0.3,0-0.5-0.1-0.8-0.3c-0.3-0.2-0.5-0.6-0.5-1v-25c0-0.7,0.6-1.3,1.3-1.3h14.4
				c0.7,0,1.3,0.6,1.3,1.3v21c0,0.6-0.4,1.1-0.9,1.2l-14.4,4C104.9,58.8,104.8,58.8,104.7,58.8z M104.7,32.3c-0.1,0-0.3,0.1-0.3,0.3
				v25c0,0.1,0.1,0.2,0.1,0.2c0,0,0.1,0.1,0.2,0l14.4-4c0.1,0,0.2-0.1,0.2-0.3v-21c0-0.1-0.1-0.3-0.3-0.3H104.7z"/>
		</g>
	</g>
	<g>
		<g>
			<path class="st2" d="M116.7,36.5h-9.7c-0.8,0-1.5-0.7-1.5-1.5V26c0-0.4,0.2-0.8,0.4-1.1L111,20c0.6-0.6,1.5-0.6,2.1,0l4.7,5
				c0.3,0.3,0.5,0.7,0.5,1.1V35C118.2,35.8,117.6,36.5,116.7,36.5z"/>
		</g>
		<g>
			<path class="st2" d="M116.7,37h-9.7c-1.1,0-2-0.9-2-2V26c0-0.5,0.2-1,0.6-1.4l4.9-4.9c0.8-0.8,2-0.8,2.8-0.1l4.7,5
				c0.4,0.4,0.6,0.9,0.6,1.5V35C118.7,36.1,117.8,37,116.7,37z M112,20.1c-0.3,0-0.5,0.1-0.7,0.3l-4.9,4.9c-0.2,0.2-0.3,0.4-0.3,0.7
				V35c0,0.6,0.5,1,1,1h9.7c0.6,0,1-0.5,1-1v-8.9c0-0.3-0.1-0.6-0.3-0.7l-4.7-5C112.5,20.2,112.3,20.1,112,20.1z"/>
		</g>
	</g>
	<g>
		<g>
			<path class="st2" d="M104.8,58.6h-5c-0.5,0-0.8-0.4-0.8-0.8V40.6c0-0.5,0.4-0.8,0.8-0.8h5c0.5,0,0.8,0.4,0.8,0.8v17.2
				C105.6,58.2,105.3,58.6,104.8,58.6z"/>
		</g>
		<g>
			<path class="st2" d="M104.8,59.1h-5c-0.7,0-1.3-0.6-1.3-1.3V40.6c0-0.7,0.6-1.3,1.3-1.3h5c0.7,0,1.3,0.6,1.3,1.3v17.2
				C106.1,58.5,105.5,59.1,104.8,59.1z M99.8,40.3c-0.2,0-0.3,0.1-0.3,0.3v17.2c0,0.2,0.1,0.3,0.3,0.3h5c0.2,0,0.3-0.1,0.3-0.3V40.6
				c0-0.2-0.1-0.3-0.3-0.3H99.8z"/>
		</g>
	</g>
	<g>
		<g>
			<path class="st2" d="M111.9,27.8c-0.6,0-1-0.4-1-1V11.6c0-0.6,0.4-1,1-1s1,0.4,1,1v15.3C112.9,27.4,112.5,27.8,111.9,27.8z"/>
		</g>
	</g>
	<g>
		<g>
			<path class="st2" d="M142.4,77.2h-3.2c-0.3,0-0.5-0.2-0.5-0.5V6.9c0-0.1,0-0.2,0.1-0.3l1.7-3c0.2-0.4,0.7-0.4,0.9,0l1.6,3
				c0,0.1,0.1,0.2,0.1,0.2v69.7C142.9,76.9,142.7,77.2,142.4,77.2z"/>
		</g>
	</g>
	<g>
		<g>
			<path class="st2" d="M160.4,72.2h-3.2c-0.3,0-0.5-0.2-0.5-0.5V6.9c0-0.1,0-0.2,0.1-0.3l1.7-3c0.2-0.4,0.7-0.4,0.9,0l1.6,3
				c0,0.1,0.1,0.2,0.1,0.2v64.7C160.9,71.9,160.7,72.2,160.4,72.2z"/>
		</g>
	</g>
	<g>
		<g>
			<path class="st2" d="M125.1,52.8l-5,1.3c-0.8,0.2-1.6-0.4-1.6-1.3V37.2c0-0.7,0.6-1.3,1.3-1.3h5c0.7,0,1.3,0.6,1.3,1.3v14.4
				C126.1,52.2,125.7,52.7,125.1,52.8z"/>
		</g>
	</g>
	<g>
		<g>
			<path class="st2" d="M127.5,52.1H125c-0.6,0-1-0.4-1-1v-9.8c0-0.6,0.4-1,1-1h2.5c0.6,0,1,0.4,1,1V51
				C128.5,51.6,128.1,52.1,127.5,52.1z"/>
		</g>
	</g>
	<g>
		<g>
			<polygon class="st2" points="157.1,72.2 142.8,76.1 142.8,10.1 157.1,10.1 			"/>
		</g>
	</g>
	<g>
		<g>
			<path class="st2" d="M135.3,50.1l-5.5,2.3c-0.7,0-1.3-0.6-1.3-1.3V33.2c0-0.7,0.6-1.3,1.3-1.3h5.5c0.7,0,1.3,0.6,1.3,1.3v15.6
				C136.6,49.5,136,50.1,135.3,50.1z"/>
		</g>
	</g>
	<g>
		<g>
			<rect x="135.5" y="41.9" class="st2" width="5.2" height="7"/>
		</g>
	</g>
	<g>
		<g>
			<path class="st2" d="M173.6,68h-3.4c-0.7,0-1.3,0.9-1.3,0.2V36.1c0-0.7,0.6-1.3,1.3-1.3h3.4c0.7,0,1.3,0.6,1.3,1.3v30.6
				C174.9,67.4,174.3,68,173.6,68z"/>
		</g>
	</g>
	<g>
		<g>
			<path class="st2" d="M184.3,63.3l-3.4,1.1c-0.8,0.3-1.7,1.7-1.7,0.8V36.1c0-0.7,0.6-1.3,1.3-1.3h3.4c0.7,0,1.3,0.6,1.3,1.3v26
				C185.2,62.6,184.8,63.1,184.3,63.3z"/>
		</g>
	</g>
	<g>
		<g>
			<path class="st2" d="M174.7,48.6c0,0,0.2-4.3,2.3-4.3c2.2,0,2.2,4.6,2.2,4.6v-9.1h-4.8v8.5"/>
		</g>
	</g>
	<g>
		<g>
			<path class="st2" d="M199.4,59.9c-0.1,0-0.2,0-0.3,0c-1-0.3-23.3-7.1-27.8-19.3c-2.1,6.2-7.3,17.1-17,17.1v-2
				c11.7,0,16.2-19.4,16.3-19.6c0.1-0.5,0.6-0.8,1.1-0.8c0.5,0.1,0.9,0.5,0.9,1c0,8.8,11.7,15.4,19.8,18.8
				c-8.5-7.8-10.8-18.5-10.9-19l2-0.4c0,0.2,3.4,15.6,16.5,22.3c0.5,0.2,0.7,0.8,0.5,1.3C200.2,59.6,199.8,59.9,199.4,59.9z"/>
		</g>
	</g>
	<g>
		<g>
			<rect x="158.3" y="62.5" class="st2" width="22.6" height="3.4"/>
		</g>
	</g>
	<g>
		<g>
			<path class="st2" d="M163.6,71.1h-4c-0.7,0-1.3-0.6-1.3-1.3V46.3c0-0.7,0.6-1.3,1.3-1.3h4c0.7,0,1.3,0.6,1.3,1.3v23.5
				C164.9,70.5,164.3,71.1,163.6,71.1z"/>
		</g>
	</g>
</g>
<g>
	<g>
		<g>
			<path class="st2" d="M73.1,139.6V111l-25.2,8.2c-0.5,0.2-1.1-0.1-1.3-0.6c-0.2-0.5,0.1-1.1,0.6-1.3l27.8-9.1v28.7L201,97.9
				c0.5-0.2,1.1,0.1,1.3,0.7c0.2,0.5-0.1,1.1-0.7,1.3L73.1,139.6z"/>
		</g>
	</g>
	<g>
		<g>
			<path class="st2" d="M43.9,116.1c-0.5,0-1-0.4-1-1l-0.1-23.4L4.3,103.8c-0.5,0.2-1.1-0.1-1.3-0.7c-0.2-0.5,0.1-1.1,0.7-1.3
				l39.8-12.5c0.3-0.1,0.6,0,0.9,0.1c0.3,0.2,0.4,0.5,0.4,0.8l0.1,24.8C44.9,115.7,44.5,116.1,43.9,116.1
				C43.9,116.1,43.9,116.1,43.9,116.1z"/>
		</g>
	</g>
	<g>
		<g>
			<g>
				<path class="st2" d="M74.2,138.4c-6.4,10-17.7,16.6-30.4,16.6c-19.9,0-36.1-16.2-36.1-36.1c0-6.8,1.9-13.2,5.2-18.7l8.9-3.4
					c-5.6,5.6-9.1,13.4-9.1,22c0,17.2,14,31.1,31.1,31.1c14.8,0,27.2-10.4,30.4-24.3"/>
			</g>
		</g>
	</g>
	<g>
		<g>
			<g>
				<path class="st2" d="M43.8,123.7c-2.7,0-4.9-2.2-4.9-4.9s2.2-4.9,4.9-4.9s4.9,2.2,4.9,4.9S46.5,123.7,43.8,123.7z M43.8,116
					c-1.6,0-2.9,1.3-2.9,2.9s1.3,2.9,2.9,2.9s2.9-1.3,2.9-2.9S45.4,116,43.8,116z"/>
			</g>
			<g>
				<path class="st2" d="M43.8,124.2c-3,0-5.4-2.4-5.4-5.4s2.4-5.4,5.4-5.4s5.4,2.4,5.4,5.4S46.8,124.2,43.8,124.2z M43.8,114.5
					c-2.4,0-4.4,2-4.4,4.4s2,4.4,4.4,4.4s4.4-2,4.4-4.4S46.2,114.5,43.8,114.5z M43.8,122.2c-1.9,0-3.4-1.5-3.4-3.4s1.5-3.4,3.4-3.4
					s3.4,1.5,3.4,3.4S45.7,122.2,43.8,122.2z M43.8,116.5c-1.3,0-2.4,1.1-2.4,2.4s1.1,2.4,2.4,2.4s2.4-1.1,2.4-2.4
					S45.1,116.5,43.8,116.5z"/>
			</g>
		</g>
	</g>
	<g>
		<g>
			<path class="st2" d="M48.9,146"/>
		</g>
	</g>
	<g>
		<g>
			<path class="st2" d="M43.9,147.4c-15.7,0-28.4-12.7-28.4-28.4s12.7-28.4,28.4-28.4v2c-14.6,0-26.4,11.8-26.4,26.4
				c0,14.6,11.8,26.4,26.4,26.4c14.6,0,26.4-11.8,26.4-26.4c0-2.7-0.4-5.4-1.2-8l1.9-0.6c0.9,2.8,1.3,5.7,1.3,8.6
				C72.3,134.7,59.5,147.4,43.9,147.4z"/>
		</g>
	</g>
	<g>
		<g>
			<path class="st2" d="M47.5,118.7c-0.2,0-0.4-0.2-0.5-0.4c0-0.3,0.1-0.5,0.4-0.6l23.2-4.1c0.3-0.1,0.5,0.1,0.6,0.4
				c0,0.3-0.1,0.5-0.4,0.6L47.5,118.7C47.6,118.7,47.6,118.7,47.5,118.7z"/>
		</g>
	</g>
	<g>
		<g>
			<path class="st2" d="M16.8,124.1c-0.2,0-0.4-0.2-0.5-0.4c0-0.3,0.1-0.5,0.4-0.6l23.7-4.2c0.3-0.1,0.5,0.1,0.6,0.4
				c0,0.3-0.1,0.5-0.4,0.6L16.8,124.1C16.8,124.1,16.8,124.1,16.8,124.1z"/>
		</g>
	</g>
	<g>
		<g>
			<path class="st2" d="M20,133c-0.2,0-0.3-0.1-0.4-0.2c-0.1-0.2-0.1-0.5,0.2-0.7l20-11.5c0.2-0.1,0.5-0.1,0.7,0.2
				c0.1,0.2,0.1,0.5-0.2,0.7l-20,11.5C20.2,133,20.1,133,20,133z"/>
		</g>
	</g>
	<g>
		<g>
			<path class="st2" d="M26.2,140.3c-0.1,0-0.2,0-0.3-0.1c-0.2-0.2-0.2-0.5-0.1-0.7l15.1-18c0.2-0.2,0.5-0.2,0.7-0.1
				c0.2,0.2,0.2,0.5,0.1,0.7l-15.1,18C26.4,140.3,26.3,140.3,26.2,140.3z"/>
		</g>
	</g>
	<g>
		<g>
			<path class="st2" d="M34.4,145.1c-0.1,0-0.1,0-0.2,0c-0.3-0.1-0.4-0.4-0.3-0.6l8-22c0.1-0.3,0.4-0.4,0.6-0.3
				c0.3,0.1,0.4,0.4,0.3,0.6l-8,22C34.8,145,34.6,145.1,34.4,145.1z"/>
		</g>
	</g>
	<g>
		<g>
			<path class="st2" d="M43.8,115c-0.3,0-0.5-0.2-0.5-0.5V91.4c0-0.3,0.2-0.5,0.5-0.5s0.5,0.2,0.5,0.5v23.1
				C44.3,114.8,44.1,115,43.8,115z"/>
		</g>
	</g>
	<g>
		<g>
			<path class="st2" d="M43.8,146.7c-0.3,0-0.5-0.2-0.5-0.5v-23.1c0-0.3,0.2-0.5,0.5-0.5s0.5,0.2,0.5,0.5v23.1
				C44.3,146.5,44.1,146.7,43.8,146.7z"/>
		</g>
	</g>
	<g>
		<g>
			<path class="st2" d="M42.4,115.5c-0.2,0-0.4-0.1-0.5-0.3l-8-21.9c-0.1-0.3,0-0.5,0.3-0.6c0.3-0.1,0.5,0,0.6,0.3l8,21.9
				c0.1,0.3,0,0.5-0.3,0.6C42.5,115.5,42.4,115.5,42.4,115.5z"/>
		</g>
	</g>
	<g>
		<g>
			<path class="st2" d="M53.1,145.1c-0.2,0-0.4-0.1-0.5-0.3l-8.1-22.3c-0.1-0.3,0-0.5,0.3-0.6c0.3-0.1,0.5,0,0.6,0.3l8.1,22.3
				c0.1,0.3,0,0.5-0.3,0.6C53.3,145.1,53.2,145.1,53.1,145.1z"/>
		</g>
	</g>
	<g>
		<g>
			<path class="st2" d="M41.2,116.3c-0.1,0-0.3-0.1-0.4-0.2L25.8,98.2c-0.2-0.2-0.1-0.5,0.1-0.7c0.2-0.2,0.5-0.1,0.7,0.1l15.1,17.9
				c0.2,0.2,0.1,0.5-0.1,0.7C41.4,116.2,41.3,116.3,41.2,116.3z"/>
		</g>
	</g>
	<g>
		<g>
			<path class="st2" d="M61.4,140.3c-0.1,0-0.3-0.1-0.4-0.2l-15.1-18c-0.2-0.2-0.1-0.5,0.1-0.7c0.2-0.2,0.5-0.2,0.7,0.1l15.1,18
				c0.2,0.2,0.1,0.5-0.1,0.7C61.6,140.3,61.5,140.3,61.4,140.3z"/>
		</g>
	</g>
	<g>
		<g>
			<path class="st2" d="M40.1,117.2c-0.1,0-0.2,0-0.2-0.1l-20-11.6c-0.2-0.1-0.3-0.4-0.2-0.7c0.1-0.2,0.4-0.3,0.7-0.2l20,11.6
				c0.2,0.1,0.3,0.4,0.2,0.7C40.4,117.1,40.2,117.2,40.1,117.2z"/>
		</g>
	</g>
	<g>
		<g>
			<path class="st2" d="M67.5,133c-0.1,0-0.2,0-0.2-0.1l-20.5-11.8c-0.2-0.1-0.3-0.4-0.2-0.7s0.4-0.3,0.7-0.2l20.5,11.8
				c0.2,0.1,0.3,0.4,0.2,0.7C67.8,132.9,67.7,133,67.5,133z"/>
		</g>
	</g>
	<g>
		<g>
			<path class="st2" d="M39.5,118.6C39.5,118.6,39.4,118.6,39.5,118.6l-22.8-4c-0.3,0-0.5-0.3-0.4-0.6c0-0.3,0.3-0.5,0.6-0.4l22.7,4
				c0.3,0,0.5,0.3,0.4,0.6C39.9,118.4,39.7,118.6,39.5,118.6z"/>
		</g>
	</g>
	<g>
		<g>
			<path class="st2" d="M70.8,124.1C70.7,124.1,70.7,124.1,70.8,124.1l-22.6-4c-0.3,0-0.5-0.3-0.4-0.6c0-0.3,0.3-0.5,0.6-0.4l22.5,4
				c0.3,0,0.5,0.3,0.4,0.6C71.2,123.9,71,124.1,70.8,124.1z"/>
		</g>
	</g>
	<g>
		<g>
			<g>
				<path class="st2" d="M73.8,139.5c-0.1,0-0.2,0-0.3-0.1c-0.2-0.2-0.3-0.5-0.1-0.7c0.2-0.3,0.4-0.5,0.5-0.8
					c0.1-0.2,0.5-0.3,0.7-0.1c0.2,0.1,0.3,0.5,0.1,0.7c-0.2,0.3-0.4,0.6-0.6,0.8C74.1,139.4,73.9,139.5,73.8,139.5z"/>
			</g>
		</g>
		<g>
			<g>
				<path class="st2" d="M43.9,155.3l0-1c0.7,0,1.3,0,2-0.1c0.3,0,0.5,0.2,0.5,0.5c0,0.3-0.2,0.5-0.5,0.5
					C45.3,155.3,44.6,155.3,43.9,155.3z M42.4,155.3C42.4,155.3,42.4,155.3,42.4,155.3c-0.7,0-1.4-0.1-2.1-0.1
					c-0.3,0-0.5-0.3-0.4-0.5c0-0.3,0.3-0.5,0.5-0.4c0.7,0.1,1.3,0.1,2,0.1c0.3,0,0.5,0.2,0.5,0.5C42.9,155.1,42.7,155.3,42.4,155.3z
					 M47.4,155.1c-0.3,0-0.5-0.2-0.5-0.5c0-0.3,0.2-0.5,0.4-0.5c0.7-0.1,1.3-0.1,2-0.2c0.3,0,0.5,0.1,0.6,0.4c0,0.3-0.1,0.5-0.4,0.6
					C48.8,155,48.2,155.1,47.4,155.1C47.5,155.1,47.5,155.1,47.4,155.1z M38.9,155C38.9,155,38.9,155,38.9,155
					c-0.7-0.1-1.4-0.2-2.1-0.3c-0.3-0.1-0.4-0.3-0.4-0.6c0.1-0.3,0.3-0.5,0.6-0.4c0.6,0.1,1.3,0.2,2,0.3c0.3,0,0.5,0.3,0.4,0.6
					C39.4,154.8,39.2,155,38.9,155z M50.9,154.6c-0.2,0-0.4-0.2-0.5-0.4c-0.1-0.3,0.1-0.5,0.4-0.6c0.6-0.1,1.3-0.3,1.9-0.4
					c0.3-0.1,0.5,0.1,0.6,0.4s-0.1,0.5-0.4,0.6C52.3,154.3,51.7,154.5,50.9,154.6C51,154.6,50.9,154.6,50.9,154.6z M35.5,154.3
					c0,0-0.1,0-0.1,0c-0.7-0.2-1.3-0.3-2-0.5c-0.3-0.1-0.4-0.4-0.3-0.6c0.1-0.3,0.4-0.4,0.6-0.3c0.6,0.2,1.3,0.4,1.9,0.5
					c0.3,0.1,0.4,0.3,0.4,0.6C35.9,154.2,35.7,154.3,35.5,154.3z M54.3,153.8c-0.2,0-0.4-0.1-0.5-0.4c-0.1-0.3,0.1-0.5,0.3-0.6
					c0.6-0.2,1.3-0.4,1.9-0.6c0.3-0.1,0.5,0,0.6,0.3c0.1,0.3,0,0.5-0.3,0.6c-0.6,0.2-1.3,0.4-1.9,0.6
					C54.4,153.8,54.4,153.8,54.3,153.8z M32.1,153.3c-0.1,0-0.1,0-0.2,0c-0.6-0.2-1.3-0.5-1.9-0.7c-0.3-0.1-0.4-0.4-0.3-0.7
					s0.4-0.4,0.7-0.3c0.6,0.3,1.2,0.5,1.9,0.7c0.3,0.1,0.4,0.4,0.3,0.6C32.5,153.2,32.3,153.3,32.1,153.3z M57.6,152.6
					c-0.2,0-0.4-0.1-0.5-0.3c-0.1-0.3,0-0.5,0.3-0.7c0.6-0.3,1.2-0.5,1.8-0.8c0.2-0.1,0.5,0,0.7,0.2c0.1,0.2,0,0.5-0.2,0.7
					c-0.6,0.3-1.2,0.6-1.9,0.8C57.8,152.6,57.7,152.6,57.6,152.6z M28.8,152c-0.1,0-0.1,0-0.2,0c-0.6-0.3-1.2-0.6-1.8-0.9
					c-0.2-0.1-0.3-0.4-0.2-0.7s0.4-0.3,0.7-0.2c0.6,0.3,1.2,0.6,1.8,0.9c0.3,0.1,0.4,0.4,0.2,0.7C29.2,151.9,29,152,28.8,152z
					 M60.8,151.1c-0.2,0-0.4-0.1-0.4-0.3c-0.1-0.2,0-0.5,0.2-0.7c0.6-0.3,1.2-0.6,1.7-1c0.2-0.1,0.5-0.1,0.7,0.2s0.1,0.5-0.2,0.7
					c-0.6,0.4-1.2,0.7-1.8,1C61,151.1,60.9,151.1,60.8,151.1z M25.7,150.4c-0.1,0-0.2,0-0.3-0.1c-0.6-0.3-1.2-0.7-1.7-1.1
					c-0.2-0.2-0.3-0.5-0.1-0.7c0.2-0.2,0.5-0.3,0.7-0.1c0.6,0.4,1.1,0.7,1.7,1c0.2,0.1,0.3,0.4,0.2,0.7
					C26.1,150.3,25.9,150.4,25.7,150.4z M63.8,149.3c-0.2,0-0.3-0.1-0.4-0.2c-0.2-0.2-0.1-0.5,0.1-0.7c0.6-0.4,1.1-0.7,1.6-1.1
					c0.2-0.2,0.5-0.1,0.7,0.1c0.2,0.2,0.1,0.5-0.1,0.7c-0.5,0.4-1.1,0.8-1.7,1.2C64,149.3,63.9,149.3,63.8,149.3z M22.8,148.4
					c-0.1,0-0.2,0-0.3-0.1c-0.6-0.4-1.1-0.8-1.6-1.2c-0.2-0.2-0.2-0.5-0.1-0.7c0.2-0.2,0.5-0.2,0.7-0.1c0.5,0.4,1,0.8,1.6,1.2
					c0.2,0.2,0.3,0.5,0.1,0.7C23.1,148.4,22.9,148.4,22.8,148.4z M66.7,147.2c-0.1,0-0.3-0.1-0.4-0.2c-0.2-0.2-0.1-0.5,0.1-0.7
					c0.5-0.4,1-0.8,1.5-1.3c0.2-0.2,0.5-0.2,0.7,0c0.2,0.2,0.2,0.5,0,0.7c-0.5,0.5-1,0.9-1.5,1.3C66.9,147.2,66.8,147.2,66.7,147.2z
					 M20,146.3c-0.1,0-0.2,0-0.3-0.1c-0.5-0.4-1-0.9-1.5-1.4c-0.2-0.2-0.2-0.5,0-0.7c0.2-0.2,0.5-0.2,0.7,0c0.5,0.5,1,0.9,1.4,1.4
					c0.2,0.2,0.2,0.5,0,0.7C20.3,146.2,20.2,146.3,20,146.3z M69.3,144.9c-0.1,0-0.3,0-0.4-0.1c-0.2-0.2-0.2-0.5,0-0.7
					c0.5-0.5,0.9-0.9,1.4-1.4c0.2-0.2,0.5-0.2,0.7,0c0.2,0.2,0.2,0.5,0,0.7c-0.5,0.5-0.9,1-1.4,1.5
					C69.5,144.8,69.4,144.9,69.3,144.9z M17.5,143.8c-0.1,0-0.3-0.1-0.4-0.2c-0.5-0.5-0.9-1-1.3-1.5c-0.2-0.2-0.1-0.5,0.1-0.7
					c0.2-0.2,0.5-0.1,0.7,0.1c0.4,0.5,0.9,1,1.3,1.5c0.2,0.2,0.2,0.5,0,0.7C17.8,143.8,17.6,143.8,17.5,143.8z M71.7,142.3
					c-0.1,0-0.2,0-0.3-0.1c-0.2-0.2-0.2-0.5-0.1-0.7c0.4-0.5,0.8-1,1.2-1.6c0.2-0.2,0.5-0.3,0.7-0.1c0.2,0.2,0.3,0.5,0.1,0.7
					c-0.4,0.5-0.8,1.1-1.3,1.6C71.9,142.3,71.8,142.3,71.7,142.3z M15.2,141.1c-0.2,0-0.3-0.1-0.4-0.2c-0.4-0.5-0.8-1.1-1.2-1.6
					c-0.2-0.2-0.1-0.5,0.1-0.7c0.2-0.2,0.5-0.1,0.7,0.1c0.4,0.5,0.8,1.1,1.2,1.6c0.2,0.2,0.1,0.5-0.1,0.7
					C15.5,141.1,15.3,141.1,15.2,141.1z M13.2,138.2c-0.2,0-0.3-0.1-0.4-0.2c-0.4-0.6-0.7-1.2-1-1.8c-0.1-0.2,0-0.5,0.2-0.7
					c0.2-0.1,0.5,0,0.7,0.2c0.3,0.6,0.7,1.1,1,1.7c0.1,0.2,0.1,0.5-0.2,0.7C13.4,138.2,13.3,138.2,13.2,138.2z M11.5,135.2
					c-0.2,0-0.4-0.1-0.4-0.3c-0.3-0.6-0.6-1.2-0.9-1.8c-0.1-0.3,0-0.5,0.3-0.7c0.3-0.1,0.5,0,0.7,0.3c0.3,0.6,0.5,1.2,0.8,1.8
					c0.1,0.2,0,0.5-0.2,0.7C11.7,135.2,11.6,135.2,11.5,135.2z M10.1,132c-0.2,0-0.4-0.1-0.5-0.3c-0.2-0.6-0.5-1.3-0.7-1.9
					c-0.1-0.3,0.1-0.5,0.3-0.6c0.3-0.1,0.5,0.1,0.6,0.3c0.2,0.6,0.4,1.3,0.7,1.9c0.1,0.3,0,0.5-0.3,0.6
					C10.2,131.9,10.2,132,10.1,132z M9,128.6c-0.2,0-0.4-0.1-0.5-0.4c-0.2-0.7-0.3-1.3-0.5-2c-0.1-0.3,0.1-0.5,0.4-0.6
					c0.3-0.1,0.5,0.1,0.6,0.4c0.1,0.6,0.3,1.3,0.5,1.9c0.1,0.3-0.1,0.5-0.4,0.6C9.1,128.6,9.1,128.6,9,128.6z M8.3,125.2
					c-0.2,0-0.5-0.2-0.5-0.4c-0.1-0.7-0.2-1.3-0.3-2c0-0.3,0.2-0.5,0.4-0.6c0.3,0,0.5,0.2,0.6,0.4c0.1,0.7,0.2,1.3,0.3,2
					C8.8,124.9,8.6,125.1,8.3,125.2C8.3,125.2,8.3,125.2,8.3,125.2z M7.9,121.7c-0.3,0-0.5-0.2-0.5-0.5c0-0.7-0.1-1.4-0.1-2
					c0-0.3,0.2-0.5,0.5-0.5c0.3,0,0.5,0.2,0.5,0.5c0,0.7,0,1.3,0.1,2C8.4,121.4,8.2,121.7,7.9,121.7C7.9,121.7,7.9,121.7,7.9,121.7z
					 M7.8,118.2C7.8,118.2,7.8,118.2,7.8,118.2c-0.3,0-0.5-0.2-0.5-0.5c0-0.7,0.1-1.4,0.1-2c0-0.3,0.3-0.5,0.5-0.5
					c0.3,0,0.5,0.3,0.5,0.5c-0.1,0.7-0.1,1.3-0.1,2C8.3,118,8.1,118.2,7.8,118.2z M8.1,114.7C8,114.7,8,114.7,8.1,114.7
					c-0.3,0-0.5-0.3-0.5-0.6c0.1-0.7,0.2-1.3,0.3-2c0-0.3,0.3-0.4,0.6-0.4c0.3,0,0.5,0.3,0.4,0.6c-0.1,0.6-0.2,1.3-0.3,2
					C8.5,114.5,8.3,114.7,8.1,114.7z M8.7,111.2c0,0-0.1,0-0.1,0c-0.3-0.1-0.4-0.3-0.4-0.6c0.1-0.7,0.3-1.3,0.5-2
					c0.1-0.3,0.4-0.4,0.6-0.3c0.3,0.1,0.4,0.4,0.3,0.6c-0.2,0.6-0.3,1.3-0.5,1.9C9.1,111.1,8.9,111.2,8.7,111.2z M9.6,107.8
					c-0.1,0-0.1,0-0.2,0c-0.3-0.1-0.4-0.4-0.3-0.6c0.2-0.6,0.4-1.3,0.7-1.9c0.1-0.3,0.4-0.4,0.6-0.3c0.3,0.1,0.4,0.4,0.3,0.6
					c-0.2,0.6-0.5,1.2-0.7,1.9C10,107.7,9.8,107.8,9.6,107.8z M10.9,104.6c-0.1,0-0.1,0-0.2,0c-0.3-0.1-0.4-0.4-0.3-0.7
					c0.3-0.6,0.6-1.2,0.9-1.8c0.1-0.2,0.4-0.3,0.7-0.2c0.2,0.1,0.3,0.4,0.2,0.7c-0.3,0.6-0.6,1.2-0.9,1.8
					C11.2,104.4,11.1,104.6,10.9,104.6z"/>
			</g>
		</g>
		<g>
			<g>
				<path class="st2" d="M12.5,101.4c-0.1,0-0.2,0-0.2-0.1c-0.2-0.1-0.3-0.4-0.2-0.7c0.2-0.3,0.3-0.6,0.5-0.9
					c0.1-0.2,0.4-0.3,0.7-0.2c0.2,0.1,0.3,0.5,0.2,0.7c-0.2,0.3-0.3,0.6-0.5,0.9C12.8,101.3,12.7,101.4,12.5,101.4z"/>
			</g>
		</g>
	</g>
</g>
</svg>
